<svg width="300" height="42" viewBox="0 0 300 42" fill="none" xmlns="http://www.w3.org/2000/svg">
<path fill-rule="evenodd" clip-rule="evenodd" d="M276.459 7.37599C277.461 6.47999 277.963 5.57333 277.963 4.65599C277.963 3.71733 277.579 2.98133 276.811 2.44799C276.832 1.93599 277.003 1.50933 277.323 1.16799C277.664 0.805326 278.069 0.623993 278.539 0.623993C279.712 0.623993 280.299 1.26399 280.299 2.54399C280.299 3.41866 279.968 4.37866 279.307 5.42399C278.667 6.44799 277.835 7.24799 276.811 7.82399L276.459 7.37599ZM95.2937 4.94399C96.4884 3.23733 98.0564 2.38399 99.9977 2.38399C101.534 2.38399 102.814 2.77866 103.838 3.56799C104.883 4.33599 105.502 5.54133 105.694 7.18399H106.27V1.64799H105.662L105.63 2.19199C105.608 2.63999 105.438 2.86399 105.118 2.86399C104.926 2.86399 104.606 2.74666 104.158 2.51199C102.771 1.80799 101.384 1.45599 99.9977 1.45599C97.2671 1.45599 95.0484 2.39466 93.3417 4.27199C91.6564 6.12799 90.8137 8.68799 90.8137 11.952C90.8137 15.1947 91.6671 17.744 93.3737 19.6C95.1017 21.456 97.3097 22.384 99.9977 22.384C102.131 22.384 103.88 21.776 105.246 20.56C106.611 19.3227 107.294 17.7547 107.294 15.856V14.704C107.294 14.448 107.443 14.32 107.742 14.32H108.606V13.744H102.078V14.32H104.222C104.52 14.32 104.67 14.448 104.67 14.704V15.984C104.67 17.776 104.307 19.1413 103.582 20.08C102.878 20.9973 101.619 21.456 99.8057 21.456C98.0137 21.456 96.5204 20.6133 95.3257 18.928C94.1311 17.2427 93.5337 14.9173 93.5337 11.952C93.5337 8.98666 94.1204 6.65066 95.2937 4.94399ZM1.12 22V21.424H2.624C2.92266 21.424 3.072 21.2747 3.072 20.976V2.79999C3.072 2.54399 2.92266 2.41599 2.624 2.41599H1.12V1.83999H11.264C12.9493 1.83999 14.1333 1.74399 14.816 1.55199C14.624 2.42666 14.528 3.64266 14.528 5.19999V6.70399H13.792L13.312 3.43999C13.2693 2.97066 12.9707 2.73599 12.416 2.73599H5.696V11.472H12.128C12.384 11.472 12.5333 11.3227 12.576 11.024L12.736 9.03999H13.312V14.8H12.736L12.576 12.816C12.5333 12.5173 12.384 12.368 12.128 12.368H5.696V21.104H12.864C13.4187 21.104 13.7173 20.8693 13.76 20.4L14.24 16.656H14.976V18.16C14.976 20.0373 15.072 21.4133 15.264 22.288C14.5813 22.096 13.3973 22 11.712 22H1.12ZM36.7232 22V21.424H38.2272C38.5259 21.424 38.6752 21.296 38.6752 21.04V4.68799L31.9872 22H30.8992L24.2112 5.16799V20.976C24.2112 21.2747 24.3606 21.424 24.6592 21.424H26.1632V22H21.1712V21.424H22.6752C22.9739 21.424 23.1232 21.2747 23.1232 20.976V2.79999C23.1232 2.54399 22.9739 2.41599 22.6752 2.41599H21.1712V1.83999H25.7472L32.2752 18.384L38.6752 1.83999H43.2512V2.41599H41.7472C41.4486 2.41599 41.2992 2.56533 41.2992 2.86399V21.04C41.2992 21.296 41.4486 21.424 41.7472 21.424H43.2512V22H36.7232ZM50.9557 2.79999V20.976C50.9557 21.2747 50.8064 21.424 50.5077 21.424H49.0037V22H55.5317V21.424H54.0277C53.7291 21.424 53.5797 21.2747 53.5797 20.976V2.79999C53.5797 2.54399 53.7291 2.41599 54.0277 2.41599H55.5317V1.83999H49.0037V2.41599H50.5077C50.8064 2.41599 50.9557 2.54399 50.9557 2.79999ZM61.305 22V21.424H62.809C63.1077 21.424 63.257 21.2747 63.257 20.976V2.79999C63.257 2.54399 63.1077 2.41599 62.809 2.41599H61.305V1.83999H67.833V2.41599H66.329C66.0303 2.41599 65.881 2.54399 65.881 2.79999V21.104H72.249C72.8037 21.104 73.1023 20.8693 73.145 20.4L73.625 16.656H74.361V18.16C74.361 20.0373 74.457 21.4133 74.649 22.288C73.9663 22.096 72.7823 22 71.097 22H61.305ZM130.552 22H123.992V21.424H126.072L123.832 15.248H116.792L114.552 21.424H116.632V22H111.8V21.424H112.984C113.283 21.424 113.485 21.2747 113.592 20.976L120.632 1.83999H121.72L128.76 20.976C128.867 21.2747 129.069 21.424 129.368 21.424H130.552V22ZM120.344 5.61599L117.144 14.352H123.512L120.344 5.61599ZM134.885 1.83999V2.41599H136.389C136.688 2.41599 136.837 2.54399 136.837 2.79999V21.04C136.837 21.296 136.688 21.424 136.389 21.424H134.885V22H143.013C145.722 22 147.93 21.104 149.637 19.312C151.344 17.52 152.197 15.056 152.197 11.92C152.197 8.78399 151.344 6.31999 149.637 4.52799C147.93 2.73599 145.722 1.83999 143.013 1.83999H134.885ZM139.461 2.73599H143.013C144.848 2.73599 146.384 3.55733 147.621 5.19999C148.858 6.84266 149.477 9.08266 149.477 11.92C149.477 14.7573 148.858 16.9973 147.621 18.64C146.384 20.2827 144.848 21.104 143.013 21.104H139.461V2.73599ZM157.808 22V21.104L169.264 2.73599H160.88C160.325 2.73599 160.026 2.97066 159.984 3.43999L159.504 7.18399H158.768V5.67999C158.768 3.80266 158.672 2.42666 158.48 1.55199C159.162 1.74399 160.346 1.83999 162.032 1.83999H172.368V2.73599L160.88 21.104H169.967C170.522 21.104 170.821 20.8693 170.864 20.4L171.344 16.656H172.079V18.16C172.079 20.0373 172.176 21.4133 172.368 22.288C171.685 22.096 170.501 22 168.816 22H157.808ZM191.876 12.368V20.976C191.876 21.2747 191.727 21.424 191.428 21.424H189.924V22H196.452V21.424H194.948C194.65 21.424 194.5 21.2747 194.5 20.976V2.79999C194.5 2.54399 194.65 2.41599 194.948 2.41599H196.452V1.83999H189.924V2.41599H191.428C191.727 2.41599 191.876 2.56533 191.876 2.86399V11.472H182.532V2.86399C182.532 2.56533 182.682 2.41599 182.98 2.41599H184.484V1.83999H177.956V2.41599H179.46C179.759 2.41599 179.908 2.54399 179.908 2.79999V20.976C179.908 21.2747 179.759 21.424 179.46 21.424H177.956V22H184.484V21.424H182.98C182.682 21.424 182.532 21.2747 182.532 20.976V12.368H191.876ZM204.178 20.976V2.79999C204.178 2.54399 204.029 2.41599 203.73 2.41599H202.226V1.83999H208.754V2.41599H207.25C206.952 2.41599 206.802 2.54399 206.802 2.79999V20.976C206.802 21.2747 206.952 21.424 207.25 21.424H208.754V22H202.226V21.424H203.73C204.029 21.424 204.178 21.2747 204.178 20.976ZM230.111 1.83999H225.76V2.41599H227.359L222.975 13.04L218.079 2.41599H219.68V1.83999H213.568V2.41599H214.751C215.007 2.41599 215.21 2.56533 215.359 2.86399L220.799 14.64V20.976C220.799 21.2747 220.65 21.424 220.352 21.424H218.048V22H226.176V21.424H223.872C223.573 21.424 223.424 21.2747 223.424 20.976V14.672L228.32 2.86399C228.426 2.56533 228.629 2.41599 228.928 2.41599H230.111V1.83999ZM234.923 22V21.424H236.426C236.725 21.424 236.875 21.2747 236.875 20.976V2.79999C236.875 2.54399 236.725 2.41599 236.426 2.41599H234.923V1.83999H245.067C246.752 1.83999 247.936 1.74399 248.618 1.55199C248.426 2.42666 248.331 3.64266 248.331 5.19999V6.70399H247.595L247.115 3.43999C247.072 2.97066 246.773 2.73599 246.219 2.73599H239.499V11.472H245.931C246.187 11.472 246.336 11.3227 246.379 11.024L246.539 9.03999H247.115V14.8H246.539L246.379 12.816C246.336 12.5173 246.187 12.368 245.931 12.368H239.499V21.104H246.667C247.221 21.104 247.52 20.8693 247.562 20.4L248.043 16.656H248.779V18.16C248.779 20.0373 248.875 21.4133 249.067 22.288C248.384 22.096 247.2 22 245.515 22H234.923ZM260.094 1.83999H254.014V2.41599H255.198C255.496 2.41599 255.699 2.56533 255.806 2.86399L262.366 22H263.454L270.014 2.86399C270.12 2.56533 270.323 2.41599 270.622 2.41599H271.806V1.83999H267.454V2.41599H269.054L263.71 18.032L258.494 2.41599H260.094V1.83999ZM288.824 21.232C290.232 22 291.641 22.384 293.048 22.384C295.075 22.384 296.696 21.8293 297.912 20.72C299.128 19.6107 299.736 18.2987 299.736 16.784C299.736 15.7173 299.406 14.7253 298.744 13.808C298.104 12.8693 297.145 12.112 295.865 11.536L292.024 9.83999C291.086 9.43466 290.371 8.87999 289.88 8.17599C289.411 7.47199 289.176 6.68266 289.176 5.80799C289.176 4.91199 289.518 4.12266 290.201 3.43999C290.905 2.73599 291.886 2.38399 293.145 2.38399C294.424 2.38399 295.502 2.77866 296.376 3.56799C297.272 4.33599 297.806 5.54133 297.977 7.18399H298.552V1.64799H297.944L297.912 2.28799C297.891 2.73599 297.742 2.95999 297.464 2.95999C297.315 2.95999 297.038 2.84266 296.632 2.60799C295.416 1.83999 294.232 1.45599 293.08 1.45599C291.118 1.45599 289.614 2.02133 288.568 3.15199C287.523 4.26133 287 5.59466 287 7.15199C287 8.17599 287.289 9.13599 287.865 10.032C288.44 10.9067 289.304 11.6 290.456 12.112L294.264 13.808C296.185 14.6613 297.145 15.92 297.145 17.584C297.145 18.6293 296.771 19.536 296.024 20.304C295.299 21.072 294.222 21.456 292.792 21.456C291.384 21.456 290.158 21.072 289.112 20.304C288.089 19.5147 287.48 18.2987 287.288 16.656H286.712V22H287.32L287.352 21.552C287.374 21.104 287.544 20.88 287.865 20.88C288.035 20.88 288.355 20.9973 288.824 21.232ZM38.6125 37.56V39C38.6125 40.4933 39.5138 41.24 41.3165 41.24C43.1192 41.24 44.0205 40.4933 44.0205 39V36.2H45.3165V35.24H40.9325C40.3458 34.3973 40.0525 33.784 40.0525 33.4V32.536C40.0525 32.152 40.1752 31.8533 40.4205 31.64C40.6765 31.4267 41.0552 31.32 41.5565 31.32C42.0578 31.32 42.4312 31.4267 42.6765 31.64C42.9325 31.8533 43.0605 32.152 43.0605 32.536V33.96H44.1805V32.6C44.1805 31.1067 43.3218 30.36 41.6045 30.36C40.7085 30.36 40.0365 30.5573 39.5885 30.952C39.1512 31.336 38.9325 31.8853 38.9325 32.6V33.4C38.9325 33.88 39.2098 34.552 39.7645 35.416C38.9965 35.704 38.6125 36.4187 38.6125 37.56ZM42.9005 36.2V39.064C42.9005 39.448 42.7672 39.7467 42.5005 39.96C42.2338 40.1733 41.8392 40.28 41.3165 40.28C40.7938 40.28 40.3992 40.1733 40.1325 39.96C39.8658 39.7467 39.7325 39.448 39.7325 39.064V37.56C39.7325 36.6533 40.1005 36.2 40.8365 36.2H42.9005ZM2.272 41H3.84L5.456 32.696L7.088 41H8.656L10.208 30.6H9.088L7.776 39.384L6.064 30.6H4.864L3.152 39.384L1.84 30.6H0.720001L2.272 41ZM14.4419 41H19.1619V40.04H15.5619V36.2H18.3619V35.24H15.5619V31.56H19.0019V30.6H14.4419V41ZM23.4869 30.6H25.9029C26.7349 30.6 27.3642 30.7973 27.7909 31.192C28.2282 31.5867 28.4469 32.136 28.4469 32.84V33.8C28.4469 34.7066 28.0682 35.288 27.3109 35.544C28.1749 35.7787 28.6069 36.3707 28.6069 37.32V38.76C28.6069 39.4747 28.3935 40.0293 27.9669 40.424C27.5402 40.808 26.9055 41 26.0629 41H23.4869V30.6ZM27.4869 38.76V37.32C27.4869 36.9787 27.3589 36.6693 27.1029 36.392C26.8469 36.104 26.5002 35.96 26.0629 35.96H24.6069V40.04H26.0629C26.5109 40.04 26.8575 39.9173 27.1029 39.672C27.3589 39.416 27.4869 39.112 27.4869 38.76ZM27.3269 33.8V32.84C27.3269 32.4987 27.1989 32.2 26.9429 31.944C26.6975 31.688 26.3509 31.56 25.9029 31.56H24.6069V35.16H25.9029C26.3509 35.16 26.6975 35.0213 26.9429 34.744C27.1989 34.4667 27.3269 34.152 27.3269 33.8ZM59.4963 41H54.7762V30.6H59.3363V31.56H55.8963V35.24H58.6963V36.2H55.8963V40.04H59.4963V41ZM63.8212 41H64.9412V33L68.4132 41H69.5332V30.6H68.4132V38.6L64.9412 30.6H63.8212V41ZM78.8075 30.6V31.56H76.7275V41H75.6075V31.56H73.5275V30.6H78.8075ZM82.8019 41H83.9219V37.32H85.2179L87.0899 41H88.3219L86.3539 37.16C87.2925 36.8613 87.7619 36.168 87.7619 35.08V32.84C87.7619 32.136 87.5432 31.5867 87.1059 31.192C86.6792 30.7973 86.0499 30.6 85.2179 30.6H82.8019V41ZM86.2739 31.896C86.5192 32.12 86.6419 32.4347 86.6419 32.84V35.08C86.6419 35.9333 86.1672 36.36 85.2179 36.36H83.9219V31.56H85.2179C85.6765 31.56 86.0285 31.672 86.2739 31.896ZM97.2075 41H92.4875V30.6H97.0475V31.56H93.6075V35.24H96.4075V36.2H93.6075V40.04H97.2075V41ZM101.373 41H102.493V37.8H103.789C104.631 37.8 105.266 37.608 105.693 37.224C106.119 36.8293 106.333 36.2747 106.333 35.56V32.84C106.333 32.136 106.114 31.5867 105.677 31.192C105.25 30.7973 104.621 30.6 103.789 30.6H101.373V41ZM105.213 32.84V35.56C105.213 36.4133 104.738 36.84 103.789 36.84H102.493V31.56H103.789C104.247 31.56 104.599 31.672 104.845 31.896C105.09 32.12 105.213 32.4347 105.213 32.84ZM111.932 41H110.812V30.6H113.228C114.06 30.6 114.689 30.7973 115.116 31.192C115.553 31.5867 115.772 32.136 115.772 32.84V35.08C115.772 36.168 115.303 36.8613 114.364 37.16L116.332 41H115.1L113.228 37.32H111.932V41ZM114.652 32.84C114.652 32.4347 114.529 32.12 114.284 31.896C114.039 31.672 113.687 31.56 113.228 31.56H111.932V36.36H113.228C114.177 36.36 114.652 35.9333 114.652 35.08V32.84ZM120.497 41H125.217V40.04H121.618V36.2H124.417V35.24H121.618V31.56H125.058V30.6H120.497V41ZM130.662 41H129.542V30.6H130.662L134.134 38.6V30.6H135.255V41H134.134L130.662 33V41ZM140.369 41H145.089V40.04H141.489V36.2H144.289V35.24H141.489V31.56H144.929V30.6H140.369V41ZM153.574 39V30.6H154.694V39C154.694 39.7147 154.464 40.2693 154.006 40.664C153.558 41.048 152.88 41.24 151.974 41.24C151.078 41.24 150.4 41.048 149.942 40.664C149.483 40.2693 149.254 39.7147 149.254 39V30.6H150.374V39C150.374 39.8533 150.907 40.28 151.974 40.28C153.04 40.28 153.574 39.8533 153.574 39ZM159.646 41H160.766V37.32H162.062L163.934 41H165.166L163.198 37.16C164.137 36.8613 164.606 36.168 164.606 35.08V32.84C164.606 32.136 164.388 31.5867 163.95 31.192C163.524 30.7973 162.894 30.6 162.062 30.6H159.646V41ZM163.118 31.896C163.364 32.12 163.486 32.4347 163.486 32.84V35.08C163.486 35.9333 163.012 36.36 162.062 36.36H160.766V31.56H162.062C162.521 31.56 162.873 31.672 163.118 31.896ZM174.42 39C174.42 40.4933 173.519 41.24 171.716 41.24C169.913 41.24 169.012 40.4933 169.012 39V37.64H170.132V39.064C170.132 39.448 170.265 39.7467 170.532 39.96C170.799 40.1733 171.193 40.28 171.716 40.28C172.239 40.28 172.633 40.1733 172.9 39.96C173.167 39.7467 173.3 39.4587 173.3 39.096C173.3 38.7227 173.257 38.4293 173.172 38.216C173.097 37.992 172.937 37.7573 172.692 37.512L169.876 34.76C169.545 34.4293 169.316 34.1093 169.188 33.8C169.071 33.48 169.012 33.08 169.012 32.6C169.012 31.8853 169.231 31.336 169.668 30.952C170.116 30.5573 170.788 30.36 171.684 30.36C173.401 30.36 174.26 31.1067 174.26 32.6V33.96H173.14V32.536C173.14 32.152 173.012 31.8533 172.756 31.64C172.511 31.4267 172.137 31.32 171.636 31.32C171.135 31.32 170.756 31.4267 170.5 31.64C170.255 31.8533 170.132 32.1467 170.132 32.52C170.132 32.8933 170.169 33.1867 170.244 33.4C170.319 33.6133 170.484 33.8373 170.74 34.072L173.604 36.824C173.913 37.1653 174.127 37.496 174.244 37.816C174.361 38.1253 174.42 38.52 174.42 39ZM179.221 41H180.341V36.2H183.493V41H184.613V30.6H183.493V35.24H180.341V30.6H179.221V41ZM191.974 40.04V41H189.254V40.04H190.054V31.56H189.254V30.6H191.974V31.56H191.174V40.04H191.974ZM196.447 41H197.567V37.8H198.863C199.706 37.8 200.341 37.608 200.767 37.224C201.194 36.8293 201.407 36.2747 201.407 35.56V32.84C201.407 32.136 201.189 31.5867 200.751 31.192C200.325 30.7973 199.695 30.6 198.863 30.6H196.447V41ZM200.287 32.84V35.56C200.287 36.4133 199.813 36.84 198.863 36.84H197.567V31.56H198.863C199.322 31.56 199.674 31.672 199.919 31.896C200.165 32.12 200.287 32.4347 200.287 32.84Z" fill="#E0E0E0"/>
</svg>
