<?xml version="1.0"?>
<svg xmlns="http://www.w3.org/2000/svg" height="32px" viewBox="0 0 60 60" width="32px"><g><g id="Page-1" fill="none" fill-rule="evenodd"><g id="027---Brain-Search" fill="rgb(0,0,0)" fill-rule="nonzero" transform="translate(-1)"><path id="Shape" d="m1.658 28.145c-.99640338 2.0826087-.87378076 4.5275384.326 6.5-1.53067542 3.3733387-.35679817 7.3589031 2.758 9.364-.76079665 1.8979189-.49966833 4.0529363.69240509 5.7142215s3.14999153 2.5987526 5.19159491 2.4857785c.1412492 1.917161 1.1238762 3.6734663 2.683796 4.7969019 1.5599199 1.1234356 3.5371142 1.4987581 5.400204 1.0250981 1.9306577 1.7739355 4.6495085 2.4068372 7.165116 1.6679158 2.5156076-.7389213 4.4602788-2.7416615 5.124884-5.2779158.6643472 2.5364226 2.6089122 4.5394268 5.1245579 5.278564 2.5156456.7391372 5.2346446.1063633 7.1654421-1.667564 1.8630898.47366 3.8402841.0983375 5.400204-1.0250981 1.5599198-1.1234356 2.5425468-2.8797409 2.683796-4.7969019 2.6335456.135437 5.0480419-1.4608472 5.955-3.937.504758-1.3793724.4798152-2.8969603-.07-4.259 3.1138509-2.0063118 4.2870791-5.991543 2.757-9.365 1.8852881-3.1715442.9715092-7.2629411-2.084-9.331 1.8124492-2.2782867 1.5185644-5.5778922-.668-7.5-3.278-4.889-6.133-7.269-8.727-7.269h-.007c-.8028171.0056888-1.5847277.2565561-2.241.719-2.076983-6.69858373-8.2725964-11.26509155-15.2857897-11.26646777-7.0131934-.00137621-13.2105985 4.5626997-15.2902103 11.26046777-.653544-.4619984-1.4326774-.7132192-2.233-.72h-.015c-2.592 0-5.451 2.384-8.734 7.282-2.18249558 1.9214719-2.4741414 5.2171136-.663 7.492-1.04523846.7067526-1.87835888 1.6847184-2.41 2.829zm29.342 3.855c1.3499344-.0048112 2.6938725-.1798592 4-.521v2.521c0 .5522847-.4477153 1-1 1h-6c-.5522847 0-1-.4477153-1-1v-2.521c1.3061275.3411408 2.6500656.5161888 4 .521zm-2.000006 5h4.000006v13c-.0019523.9223288-.6343868 1.7237155-1.531 1.94-.3189288.0870069-.6557352.0838915-.973-.009-.8819375-.2252712-1.4982169-1.0207496-1.496-1.931zm19.533006-24.449c.862 0 2.582.575 5.246 3.89-2.3750778-.099567-4.5378502 1.3601219-5.334 3.6-.1333427.3383251-.0725095.7223691.1588645 1.0029225.2313741.2805535.596813.4133873.9543359.3468928.3575229-.0664946.6507667-.3218348.7657996-.6668153.3163201-.8731273.9672175-1.5844084 1.808931-1.9767452.8417134-.3923368 1.8049881-.4334485 2.677069-.1142548.3781775.135039.7283242.3384156 1.033.6l.009.007c.7595183.633619 1.2154777 1.5590233 1.2551094 2.5473402.0396318.988317-.3407648 1.9472593-1.0471094 2.6396598-3.5629409-1.1075524-7.3674906.7793142-8.642 4.286-.130357.3375931-.0681497.7192734.1626574.998003.230807.2787295.5941954.4110114.9501739.3458855.3559785-.0651258.6489952-.3174963.7661687-.6598885.9444069-2.5957383 3.8142617-3.9344069 6.41-2.99s3.9344069 3.8142617 2.99 6.41c-.1568887.4266694-.3704713.8302901-.635 1.2-.023869.0438727-.0439421.0897064-.06.137-.0362816.0615004-.0654683.1269188-.087.195-.0121471.0635973-.0178427.1282585-.017.193-.0059976.0621891-.0059976.1248109 0 .187.0140622.0728975.0361986.1440024.066.212.0109868.0463243.0253587.0917797.043.136 1.1090069 2.007263.8548557 4.4921727-.6375357 6.2333702-1.4923914 1.7411976-3.9091701 2.3725057-6.0624643 1.5836298-.5191477-.1888814-1.0931186.0788523-1.282.598s.0788523 1.0931186.598 1.282c1.5517062.5729697 3.2508865.6081859 4.825.1.3215401.8771275.3215401 1.8398725 0 2.717-.716694 1.9629979-2.8236675 3.0434971-4.836 2.48-.3251647-.0924904-.675046-.0144315-.9300633.2074981-.2550173.2219297-.3806412.5576807-.3339367.8925019.0968493.7082676.0178587 1.4294861-.23 2.1-.4061413 1.1231929-1.2427794 2.0384546-2.3250757 2.5435763-1.0822963.5051216-2.3211728.5585293-3.4429243.1484237-.3797649-.1384681-.8055452-.0346866-1.079.263-1.4030303 1.5303273-3.5497482 2.1375204-5.546486 1.5688078s-3.5013654-2.215885-3.887514-4.2558078c1.3276018-.6807136 2.162696-2.0470558 2.163-3.539v-1.941c1.4759711-1.0761438 3.3899175-1.349297 5.108-.729.3375931.130357.7192734.0681497.998003-.1626574.2787295-.230807.4110114-.5941954.3458855-.9501739-.0651258-.3559785-.3174963-.6489952-.6598885-.7661687-1.890275-.6859749-3.9767084-.5851114-5.792.28v-8.915c1.1943509-.4222546 1.9947486-1.5492146 2-2.816v-3.165c6.9195557-2.7540167 10.992523-9.9499249 9.792-17.3.391818-.5851365 1.0376089-.9501326 1.741-.984zm-27.433-6.451c3.5369293-3.53692934 8.6921162-4.91825749 13.5236515-3.6236515s8.605394 5.06846467 9.9 9.9c1.294606 4.8315353-.0867222 9.9867222-3.6236515 13.5236515-3.5369293 3.5369294-8.6921162 4.9182576-13.5236516 3.6236517-4.8315354-1.294606-8.6053941-5.0684647-9.9000001-9.9000001-1.2946059-4.8315354.0867223-9.98672228 3.6236517-13.5236516zm-14.81 20.3c2.59621173-.9420696 5.4648277.3969162 6.41 2.992.1171735.3423922.4101902.5947627.7661687.6598885.3559785.0651259.7193669-.067156.9501739-.3458855.2308071-.2787296.2930144-.6604099.1626574-.998003-1.2745094-3.5066858-5.07905914-5.3935524-8.642-4.286-.71006515-.6956023-1.09086667-1.6603152-1.04736675-2.6533725.04349992-.9930574.50719765-1.9207778 1.27536675-2.5516275.30232502-.2564075.6485761-.4559593 1.022-.589.87229636-.3174772 1.83498397-.2754264 2.67627564.1169013.84129166.3923277 1.49227066 1.1027938 1.80972436 1.9750987.1986833.5041112.7627195.7582713 1.2719718.5731626.5092523-.1851088.7784296-.7421346.6070282-1.2561626-.8110542-2.2247175-2.9549888-3.6805949-5.322-3.614 2.66-3.306 4.375-3.879 5.237-3.879h.007c.701375.0344012 1.3449829.3990505 1.735.983-.133126.8177362-.2029997 1.6445201-.209 2.473.0030561 6.5194703 3.9578336 12.3863827 10 14.835v3.165c.0052514 1.2667854.8056491 2.3937454 2 2.816v13.184c.0003956 1.4921338.8343464 2.8590258 2.161 3.542-.3885835 2.0384432-1.8939005 3.6832729-3.8900114 4.2505374s-4.1414672-.0400991-5.5439886-1.5695374c-.2743068-.2962406-.699144-.3997922-1.079-.263-1.1218655.4103353-2.3609681.3569212-3.443361-.1484332-1.0823928-.5053543-1.9189203-1.4210235-2.324639-2.5445668-.2480601-.6704664-.3270562-1.3917352-.23-2.1.0467045-.3348212-.0789194-.6705722-.3339367-.8925019-.2550173-.2219296-.6048986-.2999885-.9300633-.2074981-2.01233253.5634971-4.11930597-.5170021-4.836-2.48-.32148523-.8764495-.32148523-1.8385505 0-2.715 1.57421608.507487 3.27316242.4722757 4.825-.1.3358297-.1221848.5809643-.4142513.6430639-.7661807.0620997-.3519294-.06827-.7102554-.342-.94s-.6492342-.2960042-.9850639-.1738193c-2.15168175.7774022-4.55990828.1416428-6.04749691-1.5965081-1.48758862-1.738151-1.74384361-4.2156656-.64350309-6.2214919.01763556-.0438807.03200794-.0890033.043-.135.02979439-.0683463.05192926-.1397816.066-.213.00599759-.0621891.00599759-.1248109 0-.187.0009656-.0647937-.0050694-.1295023-.018-.193-.02253173-.0683634-.05307764-.1338189-.091-.195-.01605788-.0472936-.03613102-.0931273-.06-.137-.26452868-.3697099-.47811132-.7733306-.635-1.2-.94479287-2.5953717.39095886-5.4655599 2.985-6.414z" data-original="#000000" class="active-path" data-old_color="#000000" fill="#2AB6E3"/><path id="Shape" d="m8.889 35.89c.9905506.4644387 2.0709743.7057845 3.165.707.2838079-.0023864.5672564-.0207488.849-.055-.0384213 1.2908659-.7818119 2.4566376-1.936 3.036-.4207512.2037485-.6441935.6718165-.5380421 1.1270932.1061514.4552768.5135661.7762555.9810421.7729068.1529907.0004378.3040972-.0337492.442-.1 2.0063754-1.0023429 3.2099117-3.1160337 3.048-5.353 1.7473865-.7079418 3.1611629-2.0523874 3.956-3.762.2234996-.4984974.0055771-1.084101-.4894355-1.3152161-.4950126-.2311152-1.0838881-.0221954-1.3225645.4692161-.9397924 2.016795-3.002143 3.2686825-5.225039 3.1717017-2.22289606-.0969808-4.16838307-1.5237227-4.928961-3.6147017-.11717353-.3423922-.41019023-.5947627-.76616869-.6598885-.35597847-.0651259-.71936688.067156-.95017393.3458855-.23080705.2787296-.29301441.6604099-.16265738.998003.67502869 1.8723139 2.07162489 3.3963972 3.878 4.232z" data-original="#000000" class="active-path" data-old_color="#000000" fill="#2AB6E3"/><path id="Shape" d="m16.378 48.271c.009.025.023.049.032.074-.3295322.0669612-.6539876.1568464-.971.269-.5081613.1962197-.7657941.7630642-.5794616 1.2749336.1863324.5118694.7480765.7804416 1.2634616.6040664 2.5946215-.9441265 5.4633861.3935559 6.408 2.988.1118092.3487061.4052744.6084098.7649897.6769821.3597152.0685723.7281419-.0649554.9603953-.348073s.2911831-.6705387.153615-1.0099091c-.913769-2.5201065-3.190052-4.2942625-5.857-4.565-.1160113-.2071839-.2162935-.4227906-.3-.645-.9441265-2.5946215.3935559-5.4633861 2.988-6.408.5191477-.1886053.7871052-.7623523.5985-1.2815-.1886053-.5191476-.7623523-.7871052-1.2815-.5985-3.626152 1.3277255-5.4952875 5.338318-4.18 8.969z" data-original="#000000" class="active-path" data-old_color="#000000" fill="#2AB6E3"/><path id="Shape" d="m44.957 31.417c-.2386764-.4914115-.8275519-.7003313-1.3225645-.4692161-.4950126.2311151-.7129351.8167187-.4894355 1.3152161.7943063 1.709406 2.2078372 3.0536007 3.955 3.761-.1597251 2.2349159 1.0429808 4.3458681 3.047 5.348.1379028.0662508.2890093.1004378.442.1.467476.0033487.8748907-.31763.9810421-.7729068.1061514-.4552767-.1172909-.9233447-.5380421-1.1270932-1.1507838-.5794339-1.892183-1.7421873-1.932-3.03.2817436.0342512.5651921.0526136.849.055 3.1508474-.0072999 5.9626791-1.9791353 7.043-4.939.130357-.3375931.0681497-.7192734-.1626574-.998003-.230807-.2787295-.5941954-.4110114-.9501739-.3458855-.3559785.0651258-.6489952.3174963-.7661687.6598885-.7609028 2.090355-2.7060782 3.5165263-4.928499 3.6134959s-4.284422-1.1543588-5.224501-3.1704959z" data-original="#000000" class="active-path" data-old_color="#000000" fill="#2AB6E3"/><path id="Shape" d="m47.158 49.9c-.3166407-.1133299-.6411812-.2032386-.971-.269.009-.025.023-.049.032-.074 1.3173954-3.632455-.5543895-7.6457875-4.184-8.971-.514028-.1714014-1.0710538.0977759-1.2561626.6070282-.1851087.5092523.0690514 1.0732885.5731626 1.2719718 1.3686386.4868102 2.455293 1.5487994 2.9733931 2.9059023s.4156278 2.8730641-.2803931 4.1480977c-2.6675095.2693378-4.9444512 2.0440072-5.857 4.565-.1393616.3394895-.0815749.7280393.1505506 1.0122797.2321254.2842403.6012925.4185008.9617824.3497856.36049-.0687152.6543809-.3293652.765667-.6790653.4536149-1.2461483 1.3837017-2.2610471 2.585635-2.8214117 1.2019332-.5603645 2.5772478-.6202885 3.823365-.1665883.3383251.1333427.7223691.0725095 1.0029225-.1588645.2805535-.2313741.4133873-.596813.3468928-.9543359-.0664946-.3575229-.3218348-.6507667-.6668153-.7657996z" data-original="#000000" class="active-path" data-old_color="#000000" fill="#2AB6E3"/><path id="Shape" d="m22.516 24.485c4.7042127 4.5776935 12.213514 4.5262959 16.8546247-.1153618s4.6916232-12.150965.1133753-16.8546382c-4.7042127-4.57769349-12.213514-4.52629593-16.8546247.1153618-4.6411107 4.6416577-4.6916232 12.150965-.1133753 16.8546382zm1.414-15.556c3.3742381-3.38230447 8.6681348-3.90928571 12.6429331-1.25854149 3.9747983 2.65074419 5.5229105 7.74057719 3.6972159 12.15558629-1.8256947 4.4150092-6.5164616 6.9249408-11.2025331 5.994242s-8.0616618-5.0426863-8.0616159-9.8202868c-.00904-2.652965 1.0438936-5.1992349 2.924-7.071z" data-original="#000000" class="active-path" data-old_color="#000000" fill="#2AB6E3"/><path id="Shape" d="m24.531 20.95c.3001668.4639192.9195808.5966668 1.3835.2965s.5966668-.9195808.2965-1.3835c-1.7975646-2.4801566-1.567021-5.8903508.548-8.106.2791171-.2816825.5852568-.5352358.914-.757.321306-.1878367.5117121-.5385722.4942039-.9103431-.0175082-.37177098-.2400336-.7030599-.5775704-.85986898-.3375368-.15680907-.7342323-.1131909-1.0296335.11321208-.436984.29286795-.8442583.62779749-1.216 1-2.7970699 2.8753404-3.1391962 7.3389741-.813 10.607z" data-original="#000000" class="active-path" data-old_color="#000000" fill="#2AB6E3"/><circle id="Oval" cx="31" cy="9" r="1" data-original="#000000" class="active-path" data-old_color="#000000" fill="#2AB6E3"/></g></g></g> </svg>
