<?xml version="1.0"?>
<svg xmlns="http://www.w3.org/2000/svg" xmlns:xlink="http://www.w3.org/1999/xlink" version="1.1" id="Layer_1" x="0px" y="0px" viewBox="0 0 512 512" style="enable-background:new 0 0 512 512;" xml:space="preserve" width="48px" height="48px"><g><g transform="translate(1 1)">
	<g>
		<g>
			<path d="M485.4-1H24.6C10.093-1-1,10.093-1,24.6v85.333V485.4c0,14.507,11.093,25.6,25.6,25.6h460.8     c14.507,0,25.6-11.093,25.6-25.6V109.933V24.6C511,10.093,499.907-1,485.4-1z M16.067,24.6c0-5.12,3.413-8.533,8.533-8.533h460.8     c5.12,0,8.533,3.413,8.533,8.533v76.8H16.067V24.6z M493.933,485.4c0,5.12-3.413,8.533-8.533,8.533H24.6     c-5.12,0-8.533-3.413-8.533-8.533V118.467h477.867V485.4z" data-original="#000000" class="active-path" data-old_color="#000000" fill="#2AB6E3"/>
			<path d="M67.267,24.6c-18.773,0-34.133,15.36-34.133,34.133s15.36,34.133,34.133,34.133S101.4,77.507,101.4,58.733     S86.04,24.6,67.267,24.6z M67.267,75.8C57.88,75.8,50.2,68.12,50.2,58.733s7.68-17.067,17.067-17.067s17.067,7.68,17.067,17.067     S76.653,75.8,67.267,75.8z" data-original="#000000" class="active-path" data-old_color="#000000" fill="#2AB6E3"/>
			<path d="M152.6,24.6c-18.773,0-34.133,15.36-34.133,34.133s15.36,34.133,34.133,34.133c18.773,0,34.133-15.36,34.133-34.133     S171.373,24.6,152.6,24.6z M152.6,75.8c-9.387,0-17.067-7.68-17.067-17.067s7.68-17.067,17.067-17.067     c9.387,0,17.067,7.68,17.067,17.067S161.987,75.8,152.6,75.8z" data-original="#000000" class="active-path" data-old_color="#000000" fill="#2AB6E3"/>
			<path d="M237.933,24.6c-18.773,0-34.133,15.36-34.133,34.133s15.36,34.133,34.133,34.133s34.133-15.36,34.133-34.133     S256.707,24.6,237.933,24.6z M237.933,75.8c-9.387,0-17.067-7.68-17.067-17.067s7.68-17.067,17.067-17.067S255,49.347,255,58.733     S247.32,75.8,237.933,75.8z" data-original="#000000" class="active-path" data-old_color="#000000" fill="#2AB6E3"/>
			<path d="M113.347,313.027l67.413,67.413c1.707,1.707,3.413,2.56,5.973,2.56s4.267-0.853,5.973-2.56     c3.413-3.413,3.413-8.533,0-11.947L130.413,306.2l62.293-62.293c3.413-3.413,3.413-8.533,0-11.947s-8.533-3.413-11.947,0     l-68.267,68.267c-2.56,2.56-3.413,5.973-1.707,9.387C111.64,311.32,112.493,312.173,113.347,313.027z" data-original="#000000" class="active-path" data-old_color="#000000" fill="#2AB6E3"/>
			<path d="M317.293,380.44c1.707,1.707,3.413,2.56,5.973,2.56c1.707,0,4.267-0.853,5.973-2.56l68.267-68.267     c2.56-2.56,3.413-5.973,1.707-9.387c-0.853-1.707-1.707-2.56-2.56-3.413L329.24,231.96c-3.413-3.413-8.533-3.413-11.947,0     s-3.413,8.533,0,11.947l62.293,62.293l-62.293,62.293C313.88,371.907,313.88,377.027,317.293,380.44z" data-original="#000000" class="active-path" data-old_color="#000000" fill="#2AB6E3"/>
			<path d="M236.227,383c0,0,0.853,0,1.707,0c3.413,0,7.68-2.56,8.533-5.973L280.6,240.493c1.707-4.267-1.707-9.387-5.973-10.24     c-4.267-1.707-9.387,1.707-10.24,5.973L230.253,372.76C228.547,377.027,231.96,382.147,236.227,383z" data-original="#000000" class="active-path" data-old_color="#000000" fill="#2AB6E3"/>
		</g>
	</g>
</g></g> </svg>
